# xmcd CD database file
#
# Track frame offsets:
#	150
#	16227
#	33300
#	61842
#	88075
#	105732
#	124975
#	140600
#	159487
#	186770
#	200887
#
# Disc length: 3217 seconds
#
# Revision: 0
# Processed by: cddbd v1.5PL3 Copyright (c) Steve Scherf et al.
# Submitted via: CDex 1.50Beta7
#
DISCID=980c8f0b
DTITLE=DEEP - 燃える車に胸は痛むかい
DYEAR=1995
DGENRE=Rock
TTITLE0=密室のルール
TTITLE1=少年の心に似た自己破壊
TTITLE2=ありふれた週末
TTITLE3=僕の生まれた街
TTITLE4=黒い毛皮
TTITLE5=第3の武器
TTITLE6=トカゲのしっぽ
TTITLE7=旅
TTITLE8=ひとりぼっちの幸せを体中に感じながら
TTITLE9=燃える車に胸は痛むかい
TTITLE10=笑顔
EXTD=YEAR: 1995.08.25
EXTT0=
EXTT1=
EXTT2=
EXTT3=
EXTT4=
EXTT5=
EXTT6=
EXTT7=
EXTT8=
EXTT9=
EXTT10=
PLAYORDER=
